
<svg xmlns="http://www.w3.org/2000/svg" viewBox="0 0 708.51 70.07">
	<defs>
		<style>
			.a {
			fill: #000;
			}

			.b {
			fill: #009fdf;
			}

			.c {
			fill: #f47323;
			}
		</style>
	</defs>
	<g>
		<path class="a" d="M484.41,44.33c0,19-12.8,24.85-29,24.85H439V19.55h16.36C471.61,19.55,484.41,25.44,484.41,44.33ZM450.73,29.41V59.32h4.86c8.63,0,16.43-1.84,16.43-15s-7.8-14.92-16.43-14.92Z"/>
		<path class="a" d="M528.43,19.55V29.82H502.08v8.69H527V48.85H502.08v10h26.35V69.18H490.37V19.55Z"/>
		<path class="a" d="M570.49,35.09c-1-3.42-4.52-6.71-10.89-6.71-7.19,0-12.8,5.34-12.8,15.82s5.2,16.22,13,16.22c5.4,0,11-2.05,11-8.35v-1h-12V41.53h23.68V69.18h-9l-.35-5.47C570,68,565.15,70.07,558,70.07c-14.65,0-23.62-10-23.62-25.87,0-15.68,10.27-25.47,25.33-25.47,11,0,19.92,5.54,22.25,16.36Z"/>
		<path class="a" d="M591,69.18V19.55h11.7V69.18Z"/>
		<g>
			<path class="a" d="M622.93,50.49V69.18H611.22V19.55h19.1c12.87,0,22.53,3,22.53,15.34,0,7.32-4,11.5-9.72,13.69l12.25,20.6H641.62L630.87,50.49Zm0-9.85h7.74c5.54,0,9.79-1,9.79-5.62s-4.25-5.61-9.79-5.61h-7.74Z"/>
			<path class="a" d="M657,44.4c0-15.47,10.47-25.67,25.74-25.67s25.74,10.2,25.74,25.67S698,70.07,682.77,70.07,657,59.87,657,44.4Zm39.08,0c0-10.54-6.09-16-13.34-16s-13.35,5.48-13.35,16,6.09,16,13.35,16S696.11,54.94,696.11,44.4Z"/>
		</g>
		<rect class="b" x="344.54" y="19.55" width="82.78" height="20.02"/>
		<rect class="b" x="344.54" y="49.16" width="82.78" height="20.03"/>
	</g>
	<g>
		<path class="a" d="M5,29.66a5,5,0,1,1,0-9.95H18.89V14.83A14.87,14.87,0,0,1,33.72,0h9.85a5,5,0,0,1,5,5,5,5,0,0,1-5,4.87H33.72a5,5,0,0,0-5,5v4.88H43.57a5,5,0,1,1,0,10H28.74V64.05a4.93,4.93,0,1,1-9.85,0V29.66Z"/>
		<path class="a" d="M61.83,54.2V5a4.93,4.93,0,1,1,9.86,0V54.2a5,5,0,0,0,5,5h4.88a4.93,4.93,0,1,1,0,9.86H76.66A14.87,14.87,0,0,1,61.83,54.2Z"/>
		<path class="a" d="M130.11,19.71a14.86,14.86,0,0,1,14.83,14.83V64.05a5,5,0,0,1-5,5H110.45a14.79,14.79,0,1,1,0-29.57H135v-5a4.81,4.81,0,0,0-4.88-4.88H110.45a5,5,0,0,1,0-9.95h19.66ZM135,59.17V49.32H110.45a4.93,4.93,0,1,0,0,9.85Z"/>
		<path class="a" d="M173,54.2V29.66H158.27a5,5,0,0,1,0-9.95H173V5a4.93,4.93,0,1,1,9.86,0V19.71h14.83a5,5,0,0,1,0,10H182.86V54.2a5,5,0,0,0,5,5h9.86a4.93,4.93,0,1,1,0,9.86h-9.86A14.87,14.87,0,0,1,173,54.2Z"/>
		<path class="c" d="M248.67,37.34a6.74,6.74,0,0,0-6.81,6.81,6.77,6.77,0,1,0,13.53,0,6.72,6.72,0,0,0-6.72-6.81Z"/>
		<path class="c" d="M261.52,56H231V32.22h30.72a6.75,6.75,0,0,0,6.81-6.81,6.82,6.82,0,0,0-6.81-6.72H224.28a6.74,6.74,0,0,0-6.81,6.81V62.8a6.75,6.75,0,0,0,6.81,6.71h37.29a6.66,6.66,0,0,0,6.71-6.81A6.8,6.8,0,0,0,261.52,56Z"/>
		<path class="c" d="M328.73,57.75,318.38,47.48l-9.57,9.58,10.25,10.26a6.8,6.8,0,0,0,9.67-9.57Z"/>
		<g>
			<path class="c" d="M310.93,47.73a5.44,5.44,0,0,0,0-7.7L291.34,20.46a6.76,6.76,0,0,0-10.11.61,6.91,6.91,0,0,0,.69,9.11l13.7,13.7s0,0,0,0L281.93,57.6a6.94,6.94,0,0,0,0,9.86,6.75,6.75,0,0,0,9.43-.14Z"/>
			<path class="c" d="M328.77,20.6a6.94,6.94,0,0,0-9.86,0L308.83,30.7s0,0,0,0l9.54,9.54a0,0,0,0,0,0,0L328.63,30A6.75,6.75,0,0,0,328.77,20.6Z"/>
		</g>
	</g>
</svg>
