<svg xmlns="http://www.w3.org/2000/svg">
    <symbol viewBox="0 0 148 31" id="shape-flatex_logo">
    <title>flatex_logo</title> 
    <path d="M2.22694 13.2272C0.994555 13.2272 0 12.2363 0 11.0083C0 9.78041 0.994555 8.78944 2.22694 8.78944H8.45372V6.61362C8.45372 2.9729 11.4374 0 15.0913 0H19.5019C20.7343 0 21.7289 0.990967 21.7289 2.2189C21.7289 3.40375 20.7343 4.39472 19.5019 4.39472H15.0913C13.8589 4.39472 12.8644 5.38569 12.8644 6.61362V8.78944H19.5019C20.7343 8.78944 21.7289 9.78041 21.7289 11.0083C21.7289 12.2363 20.7343 13.2272 19.5019 13.2272H12.8644V28.5657C12.8644 29.7936 11.8698 30.7846 10.6807 30.7846C9.44828 30.7846 8.45372 29.7936 8.45372 28.5657V13.2272H2.22694Z" fill="white"></path> <path d="M27.6748 24.171V2.2189C27.6748 0.990967 28.6694 0 29.9017 0C31.0909 0 32.0854 0.990967 32.0854 2.2189V24.171C32.0854 25.3989 33.08 26.3899 34.3124 26.3899H36.4961C37.7285 26.3899 38.723 27.3808 38.723 28.5657C38.723 29.7936 37.7285 30.7846 36.4961 30.7846H34.3124C30.6585 30.7846 27.6748 27.8117 27.6748 24.171Z" fill="white"></path> <path d="M58.2244 8.7901C61.8783 8.7901 64.8619 11.763 64.8619 15.4037V28.5663C64.8619 29.7943 63.8674 30.7852 62.635 30.7852H49.4247C45.7708 30.7852 42.7871 27.8123 42.7871 24.1716C42.7871 20.5309 45.7708 17.6011 49.4247 17.6011H60.408V15.3822C60.408 14.1542 59.4567 13.2064 58.2244 13.2064H49.4247C48.1923 13.2064 47.1978 12.2154 47.1978 10.9875C47.1978 9.75952 48.1923 8.76855 49.4247 8.76855L58.2244 8.7901ZM60.408 26.3905V21.9958H49.4247C48.1923 21.9958 47.1978 22.9868 47.1978 24.1716C47.1978 25.3996 48.1923 26.3905 49.4247 26.3905H60.408Z" fill="white"></path> <path d="M77.4238 24.171V13.2272H70.8295C69.5971 13.2272 68.6025 12.2363 68.6025 11.0083C68.6025 9.78041 69.5971 8.78944 70.8295 8.78944H77.4238V2.2189C77.4238 0.990967 78.4184 0 79.6507 0C80.8399 0 81.8344 0.990967 81.8344 2.2189V8.78944H88.472C89.7044 8.78944 90.699 9.78041 90.699 11.0083C90.699 12.2363 89.7044 13.2272 88.472 13.2272H81.8344V24.171C81.8344 25.3989 82.829 26.3899 84.0614 26.3899H88.472C89.7044 26.3899 90.699 27.3808 90.699 28.5657C90.699 29.7936 89.7044 30.7846 88.472 30.7846H84.0614C80.4075 30.7846 77.4238 27.8117 77.4238 24.171Z" fill="white"></path> <path d="M111.303 16.6523C109.595 16.6523 108.255 17.988 108.255 19.6899C108.255 21.3271 109.595 22.7274 111.303 22.7274C112.947 22.7274 114.309 21.3271 114.309 19.6899C114.309 17.988 112.968 16.6523 111.303 16.6523Z" fill="#F47323"></path> <path d="M117.054 24.9689H103.368V14.3699H117.119C118.827 14.3699 120.167 13.0342 120.167 11.3323C120.167 9.69508 118.784 8.33789 117.119 8.33789H100.384C98.6764 8.33789 97.3359 9.67354 97.3359 11.3754V28.0064C97.3359 29.6437 98.6764 31.0009 100.384 31.0009H117.076C118.784 31.0009 120.081 29.6652 120.081 27.9633C120.059 26.3261 118.719 24.9689 117.054 24.9689Z" fill="#F47323"></path> <path d="M147.129 25.7654L142.503 21.1768L138.222 25.4422L142.805 30.0093C143.994 31.1941 145.897 31.1941 147.086 30.0093C148.275 28.8244 148.319 26.9502 147.129 25.7654Z" fill="#F47323"></path> <path d="M139.173 21.2838C140.124 20.3359 140.124 18.8064 139.173 17.8585L130.395 9.13371C129.184 7.86268 127.022 7.94886 125.876 9.41376C124.925 10.6202 125.098 12.3867 126.179 13.4638L132.319 19.5819C132.319 19.5819 132.319 19.5819 132.319 19.6035L126.2 25.7001C124.99 26.9065 124.946 28.9315 126.2 30.0948C127.39 31.215 129.249 31.1935 130.416 30.0302L139.173 21.2838Z" fill="#F47323"></path> <path d="M147.15 9.19837C145.983 7.94889 143.95 7.99197 142.739 9.19837L138.221 13.7008C138.221 13.7008 138.221 13.7008 138.221 13.7223L142.48 17.9662C142.48 17.9662 142.48 17.9662 142.502 17.9662L147.085 13.3992C148.253 12.2359 148.274 10.3832 147.15 9.19837Z" fill="#F47323"></path> </symbol>
</svg>